<?xml version="1.0" standalone="no"?>
<svg xmlns:xlink="http://www.w3.org/1999/xlink" id="wave" style="transform:rotate(0deg); transition: 0.3s" viewBox="0 0 1440 100" version="1.1" xmlns="http://www.w3.org/2000/svg"><defs><linearGradient id="sw-gradient-0" x1="0" x2="0" y1="1" y2="0"><stop stop-color="rgba(71, 79, 149, 1)" offset="0%"/><stop stop-color="rgba(242, 242, 242, 1)" offset="100%"/></linearGradient></defs><path style="transform:translate(0, 0px); opacity:1" fill="url(#sw-gradient-0)" d="M0,40L24,35C48,30,96,20,144,13.3C192,7,240,3,288,8.3C336,13,384,27,432,35C480,43,528,47,576,40C624,33,672,17,720,18.3C768,20,816,40,864,48.3C912,57,960,53,1008,51.7C1056,50,1104,50,1152,45C1200,40,1248,30,1296,36.7C1344,43,1392,67,1440,76.7C1488,87,1536,83,1584,75C1632,67,1680,53,1728,40C1776,27,1824,13,1872,20C1920,27,1968,53,2016,63.3C2064,73,2112,67,2160,65C2208,63,2256,67,2304,63.3C2352,60,2400,50,2448,48.3C2496,47,2544,53,2592,60C2640,67,2688,73,2736,65C2784,57,2832,33,2880,35C2928,37,2976,63,3024,68.3C3072,73,3120,57,3168,45C3216,33,3264,27,3312,25C3360,23,3408,27,3432,28.3L3456,30L3456,100L3432,100C3408,100,3360,100,3312,100C3264,100,3216,100,3168,100C3120,100,3072,100,3024,100C2976,100,2928,100,2880,100C2832,100,2784,100,2736,100C2688,100,2640,100,2592,100C2544,100,2496,100,2448,100C2400,100,2352,100,2304,100C2256,100,2208,100,2160,100C2112,100,2064,100,2016,100C1968,100,1920,100,1872,100C1824,100,1776,100,1728,100C1680,100,1632,100,1584,100C1536,100,1488,100,1440,100C1392,100,1344,100,1296,100C1248,100,1200,100,1152,100C1104,100,1056,100,1008,100C960,100,912,100,864,100C816,100,768,100,720,100C672,100,624,100,576,100C528,100,480,100,432,100C384,100,336,100,288,100C240,100,192,100,144,100C96,100,48,100,24,100L0,100Z"/></svg>